<svg width="100%" viewBox="0 0 680 300" xmlns="http://www.w3.org/2000/svg" font-family="monospace">
  <!-- Header row -->
  <rect x="40"  y="20" width="150" height="34" rx="6" fill="#E6F1FB" stroke="#378ADD" stroke-width="1"/>
  <rect x="210" y="20" width="150" height="34" rx="6" fill="#FAEEDA" stroke="#EF9F27" stroke-width="1"/>
  <rect x="380" y="20" width="140" height="34" rx="6" fill="#EAF3DE" stroke="#639922" stroke-width="1"/>
  <rect x="530" y="20" width="110" height="34" rx="6" fill="#F1EFE8" stroke="#888780" stroke-width="0.5"/>
  <text x="115" y="42" text-anchor="middle" font-size="12" font-weight="bold" fill="#0C447C" font-family="sans-serif">Subarray</text>
  <text x="285" y="42" text-anchor="middle" font-size="12" font-weight="bold" fill="#633806" font-family="sans-serif">currentSum</text>
  <text x="450" y="42" text-anchor="middle" font-size="12" font-weight="bold" fill="#27500A" font-family="sans-serif">maxSum baru</text>
  <text x="585" y="42" text-anchor="middle" font-size="12" font-weight="bold" fill="#444441" font-family="sans-serif">update?</text>

  <!-- Row 1 -->
  <text x="115" y="82" text-anchor="middle" font-size="13" fill="#3d3d3a">[2, 5, 3]</text>
  <text x="285" y="82" text-anchor="middle" font-size="13" fill="#3d3d3a">10</text>
  <text x="450" y="82" text-anchor="middle" font-size="13" fill="#3d3d3a">10</text>
  <text x="585" y="82" text-anchor="middle" font-size="12" fill="#27500A" font-family="sans-serif">✓ ya</text>
  <line x1="40" y1="92" x2="640" y2="92" stroke="#D3D1C7" stroke-width="0.5"/>

  <!-- Row 2 -->
  <text x="115" y="114" text-anchor="middle" font-size="13" fill="#3d3d3a">[5, 3, 1]</text>
  <text x="285" y="114" text-anchor="middle" font-size="13" fill="#3d3d3a">9</text>
  <text x="450" y="114" text-anchor="middle" font-size="13" fill="#3d3d3a">10</text>
  <text x="585" y="114" text-anchor="middle" font-size="12" fill="#888780" font-family="sans-serif">— tidak</text>
  <line x1="40" y1="124" x2="640" y2="124" stroke="#D3D1C7" stroke-width="0.5"/>

  <!-- Row 3 -->
  <text x="115" y="146" text-anchor="middle" font-size="13" fill="#3d3d3a">[3, 1, 11]</text>
  <text x="285" y="146" text-anchor="middle" font-size="13" fill="#3d3d3a">15</text>
  <text x="450" y="146" text-anchor="middle" font-size="13" fill="#3d3d3a">15</text>
  <text x="585" y="146" text-anchor="middle" font-size="12" fill="#27500A" font-family="sans-serif">✓ ya</text>
  <line x1="40" y1="156" x2="640" y2="156" stroke="#D3D1C7" stroke-width="0.5"/>

  <!-- Row 4 -->
  <text x="115" y="178" text-anchor="middle" font-size="13" fill="#3d3d3a">[1, 11, 7]</text>
  <text x="285" y="178" text-anchor="middle" font-size="13" fill="#3d3d3a">19</text>
  <text x="450" y="178" text-anchor="middle" font-size="13" fill="#3d3d3a">19</text>
  <text x="585" y="178" text-anchor="middle" font-size="12" fill="#27500A" font-family="sans-serif">✓ ya</text>
  <line x1="40" y1="188" x2="640" y2="188" stroke="#D3D1C7" stroke-width="0.5"/>

  <!-- Row 5 WINNER -->
  <rect x="40" y="192" width="600" height="40" rx="6" fill="#E1F5EE"/>
  <text x="115" y="218" text-anchor="middle" font-size="13" font-weight="bold" fill="#085041">[11, 7, 6]</text>
  <text x="285" y="218" text-anchor="middle" font-size="13" font-weight="bold" fill="#085041">24</text>
  <text x="450" y="218" text-anchor="middle" font-size="13" font-weight="bold" fill="#085041">24</text>
  <text x="585" y="218" text-anchor="middle" font-size="12" font-weight="bold" fill="#0F6E56" font-family="sans-serif">✓ FINAL MAX</text>
  <line x1="40" y1="232" x2="640" y2="232" stroke="#D3D1C7" stroke-width="0.5"/>

  <!-- Row 6 -->
  <text x="115" y="258" text-anchor="middle" font-size="13" fill="#3d3d3a">[7, 6, 4]</text>
  <text x="285" y="258" text-anchor="middle" font-size="13" fill="#3d3d3a">17</text>
  <text x="450" y="258" text-anchor="middle" font-size="13" fill="#3d3d3a">24</text>
  <text x="585" y="258" text-anchor="middle" font-size="12" fill="#888780" font-family="sans-serif">— tidak</text>
  <line x1="40" y1="268" x2="640" y2="268" stroke="#D3D1C7" stroke-width="0.5"/>

  <text x="340" y="290" text-anchor="middle" font-size="12" fill="#888780" font-family="sans-serif">return maxSum → 24</text>
</svg>
